<?xml version="1.0" encoding="UTF-8"?>
<svg width="34px" height="35px" viewBox="0 0 34 35" version="1.1" xmlns="http://www.w3.org/2000/svg" xmlns:xlink="http://www.w3.org/1999/xlink">
    <title>css3</title>
    <defs>
        <linearGradient x1="50%" y1="100.001238%" x2="50%" y2="0.00123760845%" id="linearGradient-1">
            <stop stop-color="#D1D3D4" stop-opacity="0" offset="38.7%"></stop>
            <stop stop-color="#D1D3D4" offset="100%"></stop>
        </linearGradient>
        <linearGradient x1="49.9990423%" y1="100.001191%" x2="49.9990423%" y2="0.00119063211%" id="linearGradient-2">
            <stop stop-color="#D1D3D4" stop-opacity="0" offset="38.7%"></stop>
            <stop stop-color="#D1D3D4" offset="100%"></stop>
        </linearGradient>
        <linearGradient x1="5.85818348e-14%" y1="50.0006558%" x2="99.9994847%" y2="50.0006558%" id="linearGradient-3">
            <stop stop-color="#E8E7E5" offset="0%"></stop>
            <stop stop-color="#FFFFFF" offset="100%"></stop>
        </linearGradient>
        <linearGradient x1="1.34896956e-14%" y1="50%" x2="99.9995254%" y2="50%" id="linearGradient-4">
            <stop stop-color="#E8E7E5" offset="0%"></stop>
            <stop stop-color="#FFFFFF" offset="100%"></stop>
        </linearGradient>
    </defs>
    <g id="Page-1" stroke="none" stroke-width="1" fill="none" fill-rule="evenodd">
        <g id="Портфолио" transform="translate(-434.000000, -614.000000)">
            <g id="css3" transform="translate(434.000000, 614.000000)">
                <polygon id="Path" points="0 0 33.8625277 0 33.8625277 33.988582 0 33.988582"></polygon>
                <polygon id="Path" fill="#2062AF" fill-rule="nonzero" points="25.4951038 29.4998146 16.9311381 31.8143422 8.36704667 29.4998146 6.39081461 8.01016135 27.4715874 8.01016135"></polygon>
                <polygon id="Path" fill="#3C9CD7" fill-rule="nonzero" points="16.9310752 9.75079013 16.9310752 29.968324 16.9504402 29.9736251 23.8808959 28.1004707 25.4805801 9.75079013"></polygon>
                <path d="M12.0707213,4.85289727 L12.0707213,3.57383614 L13.9299463,3.57383614 L13.9299463,2.17423984 L10.6763184,2.17423984 L10.6763184,6.13006518 L13.9299463,6.13006518 L13.9299463,4.85289727 L12.0707213,4.85289727 Z M17.2744889,3.57383614 L18.5743306,3.57383614 L18.5743306,2.17423984 L15.3203883,2.17423984 L15.3203883,3.57383614 C15.7557227,4.0107919 15.982758,4.21992988 16.6123707,4.85188755 C16.2443107,4.85188755 15.3203883,4.85321281 15.3203883,4.8531497 L15.3203883,6.13006518 L18.5743306,6.13006518 L18.5743306,4.85289727 L17.2744889,3.57383614 Z M21.8863678,3.57383614 L23.1861465,3.57383614 L23.1861465,2.17423984 L19.9320785,2.17423984 L19.9320785,3.57383614 C20.3674128,4.0107919 20.5945739,4.21992988 21.2241867,4.85188755 C20.8562524,4.85188755 19.9320785,4.85321281 19.9320785,4.8531497 L19.9320785,6.13006518 L23.1862094,6.13006518 L23.1862094,4.85289727 L21.8863678,3.57383614 L21.8863678,3.57383614 Z" id="Shape" fill="#000000" fill-rule="nonzero"></path>
                <polygon id="Path" fill="#FFFFFF" fill-rule="nonzero" points="16.9234676 15.1240712 10.7939542 17.6863585 10.9972234 20.2232136 16.9234676 17.6799216 23.2274542 14.9746328 23.4888183 12.3795296"></polygon>
                <polygon id="Path" fill="url(#linearGradient-1)" fill-rule="nonzero" points="10.7938913 17.6863585 10.9971606 20.2232136 16.9234047 17.6799216 16.9234047 15.1240712 10.7938913 17.6863585"></polygon>
                <polygon id="Path" fill="url(#linearGradient-2)" fill-rule="nonzero" points="23.4888183 12.3795927 16.9234676 15.1240712 16.9234676 17.6799216 23.2274542 14.9746328"></polygon>
                <polygon id="Path" fill="url(#linearGradient-3)" fill-rule="nonzero" points="10.8033223 17.6863585 11.0066544 20.2232136 20.0996985 20.2523061 19.8963036 23.6347374 16.9041655 24.4802506 14.0278399 23.7512968 13.8535553 21.6518393 11.1809391 21.6518393 11.5295713 25.7049131 16.9332129 27.3085988 22.3075557 25.7340057 23.00482 17.6863585 10.8033223 17.6863585"></polygon>
                <path d="M16.9234676,17.6863585 L10.7939542,17.6863585 L10.9972234,20.2232136 L16.9234676,20.2422089 L16.9234676,17.6863585 Z M16.9234676,24.4721729 L16.8944201,24.4803137 L14.0184718,23.7513599 L13.8441872,21.6519024 L11.1716338,21.6519024 L11.5202031,25.7049763 L16.9234676,27.3086619 L16.9234676,24.4721729 Z" id="Shape" fill="#000000" fill-rule="nonzero" opacity="0.05"></path>
                <polygon id="Path" fill="url(#linearGradient-4)" fill-rule="nonzero" points="10.2419271 12.3795927 23.4888183 12.3795927 23.2274542 14.9746959 10.5614489 14.9746959 10.2419271 12.3795927"></polygon>
                <polygon id="Path" fill="#000000" fill-rule="nonzero" opacity="0.05" points="16.9234676 12.3795927 10.2419271 12.3795927 10.5614489 14.9746959 16.9234676 14.9746959 16.9234676 12.3795927"></polygon>
            </g>
        </g>
    </g>
</svg>