<?xml version="1.0" encoding="UTF-8"?>
<svg width="20px" height="30px" viewBox="0 0 20 30" version="1.1" xmlns="http://www.w3.org/2000/svg" xmlns:xlink="http://www.w3.org/1999/xlink">
    <title>figma-1</title>
    <g id="Page-1" stroke="none" stroke-width="1" fill="none" fill-rule="evenodd">
        <g id="Портфолио" transform="translate(-440.000000, -258.000000)" fill-rule="nonzero">
            <g id="figma-1" transform="translate(440.000000, 258.000000)">
                <path d="M4.9990004,29.9940024 C7.75844862,29.9940024 9.9980008,27.7544502 9.9980008,24.995002 L9.9980008,19.9960016 L4.9990004,19.9960016 C2.23955218,19.9960016 0,22.2355538 0,24.995002 C0,27.7544502 2.23955218,29.9940024 4.9990004,29.9940024 Z" id="path0_fill" fill="#0ACF83"></path>
                <path d="M0,14.9970012 C0,12.237553 2.23955218,9.9980008 4.9990004,9.9980008 L9.9980008,9.9980008 L9.9980008,19.9960016 L4.9990004,19.9960016 C2.23955218,19.9960016 0,17.7564494 0,14.9970012 Z" id="path1_fill" fill="#A259FF"></path>
                <path d="M0,4.9990004 C0,2.23955218 2.23955218,0 4.9990004,0 L9.9980008,0 L9.9980008,9.9980008 L4.9990004,9.9980008 C2.23955218,9.9980008 0,7.75844862 0,4.9990004 Z" id="path1_fill_1_" fill="#F24E1E"></path>
                <path d="M9.9980008,0 L14.9970012,0 C17.7564494,0 19.9960016,2.23955218 19.9960016,4.9990004 C19.9960016,7.75844862 17.7564494,9.9980008 14.9970012,9.9980008 L9.9980008,9.9980008 L9.9980008,0 Z" id="path2_fill" fill="#FF7262"></path>
                <path d="M19.9960016,14.9970012 C19.9960016,17.7564494 17.7564494,19.9960016 14.9970012,19.9960016 C12.237553,19.9960016 9.9980008,17.7564494 9.9980008,14.9970012 C9.9980008,12.237553 12.237553,9.9980008 14.9970012,9.9980008 C17.7564494,9.9980008 19.9960016,12.237553 19.9960016,14.9970012 Z" id="path3_fill" fill="#1ABCFE"></path>
            </g>
        </g>
    </g>
</svg>