<?xml version="1.0" encoding="UTF-8"?>
<svg width="22px" height="30px" viewBox="0 0 22 30" version="1.1" xmlns="http://www.w3.org/2000/svg" xmlns:xlink="http://www.w3.org/1999/xlink">
    <title>html-5</title>
    <g id="Page-1" stroke="none" stroke-width="1" fill="none" fill-rule="evenodd">
        <g id="Портфолио" transform="translate(-440.000000, -536.000000)" fill-rule="nonzero">
            <g id="html-5" transform="translate(440.000000, 536.000000)">
                <polygon id="Path" fill="#E44D26" points="21.254026 5.89546715 19.3178341 27.585881 10.6145098 29.9986855 1.93517846 27.5892134 0.000986038367 5.89546715"></polygon>
                <polygon id="Path" fill="#F16529" points="10.627506 28.1543838 17.6602287 26.2046958 19.3147517 7.66920583 10.627506 7.66920583"></polygon>
                <path d="M6.86359106,12.9905885 L10.627506,12.9905885 L10.627506,10.3299388 L3.95584595,10.3299388 L4.01949427,11.043733 L4.67347241,18.3757861 L10.627506,18.3757861 L10.627506,15.7151364 L7.10677095,15.7151364 L6.86359106,12.9905885 L6.86359106,12.9905885 Z M7.46325152,19.7061525 L4.79235481,19.7061525 L5.16508069,23.8837816 L10.6152595,25.3966788 L10.627506,25.3933464 L10.627506,22.6251444 L10.6158427,22.6282269 L7.65269691,21.8281242 L7.46325152,19.7061525 L7.46325152,19.7061525 Z" id="Shape" fill="#EBEBEB"></path>
                <path d="M1.97833269,0 L3.33044291,0 L3.33044291,1.3358649 L4.56733634,1.3358649 L4.56733634,0 L5.91952987,0 L5.91952987,4.04533383 L4.56741965,4.04533383 L4.56741965,2.69072433 L3.33052622,2.69072433 L3.33052622,4.04533383 L1.978416,4.04533383 L1.978416,0 L1.97833269,0 Z M7.69751732,1.34152994 L6.50736041,1.34152994 L6.50736041,0 L10.2407842,0 L10.2407842,1.34152994 L9.04987747,1.34152994 L9.04987747,4.04533383 L7.69776725,4.04533383 L7.69776725,1.34152994 L7.69768394,1.34152994 L7.69751732,1.34152994 Z M10.83328,0 L12.2431236,0 L13.1103736,1.42142357 L13.9767905,0 L15.3872172,0 L15.3872172,4.04533383 L14.0406054,4.04533383 L14.0406054,2.04024518 L13.1103736,3.47858055 L13.087047,3.47858055 L12.156232,2.04024518 L12.156232,4.04533383 L10.83328,4.04533383 L10.83328,0 Z M16.0601066,0 L17.4126334,0 L17.4126334,2.70821929 L19.3140852,2.70821929 L19.3140852,4.04533383 L16.0600233,4.04533383 L16.0600233,0 L16.0601066,0 Z" id="Shape" fill="#000000"></path>
                <path d="M10.618342,18.3757861 L13.8946475,18.3757861 L13.5857366,21.826458 L10.6182587,22.6273938 L10.6182587,25.3954291 L16.0727696,23.8837816 L16.1127581,23.4342445 L16.7380778,16.4295971 L16.8029758,15.7151364 L10.618342,15.7151364 L10.618342,18.3757861 Z M10.618342,12.9840903 L10.618342,12.9905885 L17.0450727,12.9905885 L17.0983906,12.3925942 L17.219689,11.043733 L17.283254,10.3299388 L10.618342,10.3299388 L10.618342,12.9841737 L10.618342,12.9840903 Z" id="Shape" fill="#FFFFFF"></path>
            </g>
        </g>
    </g>
</svg>